<svg xmlns="http://www.w3.org/2000/svg" viewBox="0 0 24 24" width="256" height="256" fill="none">
  <!-- Interlocking Tri-Ring / Triquetra Ribbon Paths -->
  <!-- Top Arc (Antigravity Blade) -->
  <path d="M12 2.2 C15.5 2.2 19 6.5 17.5 12 C16.5 15.5 13 17 12 21 C11 17 7.5 15.5 6.5 12 C5 6.5 8.5 2.2 12 2.2 Z" 
        stroke="#38BDF8" stroke-width="2" stroke-linecap="round"/>

  <!-- Bottom-Left Arc (Claude Blade) -->
  <path transform="rotate(120 12 12)" 
        d="M12 2.2 C15.5 2.2 19 6.5 17.5 12 C16.5 15.5 13 17 12 21 C11 17 7.5 15.5 6.5 12 C5 6.5 8.5 2.2 12 2.2 Z" 
        stroke="#D97757" stroke-width="2" stroke-linecap="round"/>

  <!-- Bottom-Right Arc (Codex Blade) -->
  <path transform="rotate(240 12 12)" 
        d="M12 2.2 C15.5 2.2 19 6.5 17.5 12 C16.5 15.5 13 17 12 21 C11 17 7.5 15.5 6.5 12 C5 6.5 8.5 2.2 12 2.2 Z" 
        stroke="#10A37F" stroke-width="2" stroke-linecap="round"/>

  <!-- Central Star Hub Nexus -->
  <path d="M12 8.5 C12 10.5 10.5 12 8.5 12 C10.5 12 12 13.5 12 15.5 C12 13.5 13.5 12 15.5 12 C13.5 12 12 10.5 12 8.5 Z" fill="#ffffff"/>

  <!-- Apex Detail Accents -->
  <!-- Antigravity Diamond at Top -->
  <circle cx="12" cy="2.2" r="1.3" fill="#38BDF8"/>
  <!-- Claude Petal at Bottom Left -->
  <circle cx="4.2" cy="16.5" r="1.3" fill="#D97757"/>
  <!-- Codex Terminal Chevron at Bottom Right -->
  <circle cx="19.8" cy="16.5" r="1.3" fill="#10A37F"/>
</svg>